<?xml version="1.0" encoding="utf-8"?>
<!-- Generator: Adobe Illustrator 28.0.0, SVG Export Plug-In . SVG Version: 6.00 Build 0)  -->
<svg version="1.1" id="Ebene_1" xmlns="http://www.w3.org/2000/svg" xmlns:xlink="http://www.w3.org/1999/xlink" x="0px" y="0px"
	 viewBox="0 0 554 112" style="enable-background:new 0 0 554 112;" xml:space="preserve">
<style type="text/css">
	.st0{fill:#FFFFFF;}
</style>
<g id="Page-1">
	<g id="logo" transform="translate(0.02, 0)">
		<g id="Group" transform="translate(119.61, 21.64)">
			<path id="Path" class="st0" d="M16.1,71.1C9.7,71.1,4,69.7,0,67.5l3-7.7c3.5,2,7.8,2.9,11.8,2.9c6.5,0,10.2-3.7,10.2-8.7
				c0-13.1-24.3-9.5-24.3-29.3c0-10.1,7.9-17,19.6-17c5.5,0,10.5,1.3,14.2,3.5l-2.8,7c-2.7-1.5-6.6-2.7-10.1-2.7c-6,0-9.6,3-9.6,8.3
				c0,12.9,24.5,8.9,24.5,29.3C36.4,63.3,28.5,71.1,16.1,71.1z"/>
			<path id="Shape" class="st0" d="M56.1,50c0.8,8.4,5.5,13.4,13.5,13.4c4.4,0,9.1-1.2,11.9-2.8l2.6,7c-3.9,2.1-9.9,3.5-16,3.5
				C53.5,71,45.5,61,45.5,45.9S53.2,21,66.2,21c12.5,0,19.5,8.2,19.5,23.2v1.4L56.1,50z M65.9,27.5c-6.9,0-10.4,6.5-10.4,16v1
				l19.8-3.1C75.2,32.6,72.4,27.5,65.9,27.5z"/>
			<path id="Path_00000090293479376165877560000013291442155864879011_" class="st0" d="M123.5,70.1V37.1c0-6.2-2.5-9.3-9.2-9.3
				c-2.7,0-5,0.4-7.1,1.2v41H96.4V24.5c5-2.1,11.2-3.5,17.9-3.5c14,0,20.1,5.9,20.1,16.2v32.9H123.5z"/>
			<path id="Shape_00000120536376375697331330000005936176559876507838_" class="st0" d="M153.6,13.7c-3.3,0-6.1-2.4-6.1-5.4
				s2.8-5.5,6.1-5.5s6.1,2.5,6.1,5.5C159.7,11.3,156.9,13.7,153.6,13.7z M148.1,70.1V22H159v48.1H148.1z"/>
			<path id="Shape_00000039845811208932338510000010564283011890096521_" class="st0" d="M190.2,71.1c-13.7,0-20.3-10.5-20.3-25.1
				c0-14.5,6.7-25,20.3-25c13.7,0,20.4,10.5,20.4,25C210.6,60.5,203.9,71.1,190.2,71.1z M190.2,27.8c-7.1,0-9.5,7.9-9.5,18
				s2.4,18,9.5,18s9.5-7.9,9.5-18C199.7,35.8,197.3,27.8,190.2,27.8z"/>
			<path id="Shape_00000063590895813443476740000013030872700967104646_" class="st0" d="M255.4,70.1l-4.6-16.2h-20l-4.7,16.2h-10.8
				l20.3-61.4h11.5l20.4,61.4H255.4z M242.7,25.7c-0.7-2.3-1.3-6-1.6-7.9h-0.2c-0.4,2-1.1,5.5-1.8,7.9l-6.3,21.6h16.2L242.7,25.7z"
				/>
			<path id="Path_00000057834460122321343760000014224108916145063562_" class="st0" d="M302.1,70.1V37.1c0-6.2-2.5-9.3-9.2-9.3
				c-2.7,0-5,0.4-7,1.2v41H275V24.5c5-2.1,11.2-3.5,17.9-3.5c14,0,20.1,5.9,20.1,16.2v32.9H302.1z"/>
			<path id="Shape_00000107552022842470550860000013090516308984065180_" class="st0" d="M342.7,90.2c-6.3,0-12.6-1.4-16.3-3.5
				l2.9-7.1c3,1.6,7.3,2.8,11.6,2.8c8,0,11.1-4.5,11.1-11.1v-2.7c-1.9,1.1-4.9,1.8-9,1.8c-11.8,0-19.4-9-19.4-23.6
				c0-15.9,8.3-25.8,23.6-25.8c5.9,0,11.9,1.4,15.6,3.5v45.7C362.7,83.1,355.1,90.2,342.7,90.2z M351.9,28.5
				c-1.4-0.7-3.5-1.1-5.6-1.1c-8.3,0-12,7.1-12,18.8c0,11.4,3.5,17.6,11.4,17.6c2.4,0,4.6-0.6,6.2-1.5L351.9,28.5L351.9,28.5z"/>
			<path id="Shape_00000183932417006284464040000012289992485058910635_" class="st0" d="M382.9,50c0.8,8.4,5.5,13.4,13.5,13.4
				c4.4,0,9.1-1.2,11.9-2.8l2.6,7c-3.9,2.1-9.9,3.5-16,3.5c-14.5,0-22.6-10.1-22.6-25.2S379.9,21,393,21c12.5,0,19.5,8.2,19.5,23.2
				v1.4L382.9,50z M392.6,27.5c-6.9,0-10.4,6.5-10.4,16v1l19.8-3.1C402,32.6,399.1,27.5,392.6,27.5z"/>
			<polygon id="Path_00000005954524337851709720000013450928035845690041_" class="st0" points="423.5,70.1 423.5,0 434.3,0 
				434.3,70.1 			"/>
		</g>
		<g id="Group_00000075846772811351901160000000230716785995297702_">
			<path id="Path_00000064346980126143845000000017250753491273627782_" class="st0" d="M53.2,7.5c5.7,0,10.2,4.6,10.3,10.2
				c2.3-1.1,4.8-2.1,7.2-2.9C69.3,6.4,62,0,53.2,0S37.1,6.4,35.6,14.8c2.5,0.8,4.9,1.8,7.2,2.9C42.9,12.1,47.5,7.5,53.2,7.5z"/>
			<path id="Shape_00000028311253105299152520000014362795018284226739_" class="st0" d="M104.8,19.8c-0.9-0.3-1.7-0.5-2.6-0.7
				c-0.2,0-0.4-0.1-0.6-0.2c-0.9-0.2-1.7-0.4-2.6-0.6l0,0c-3.3-0.6-6.6-0.9-10-0.9c-13.8,0-26.3,5.2-35.8,13.8
				c-9.5-8.6-22-13.8-35.8-13.8c-3.4,0-6.7,0.3-10,1c0,0-1.8,0.4-2.7,0.6c-0.2,0-0.4,0.1-0.6,0.1c-0.9,0.2-1.8,0.5-2.6,0.8
				C1,20,0.5,20.2,0,20.3c0.1,2.6,0.4,5.2,0.9,7.6c3.4,17.4,15.3,31.8,31.1,38.7c0.2-2.6,0.5-5.2,1.1-7.8
				c-12.9-6.3-22.4-18.5-25-33.1c3-0.6,6.1-1,9.3-1c11.7,0,22.5,4.5,30.6,11.7c-7.7,9.2-12.3,21.1-12.3,34c0,12.6,4.3,24.5,12.3,34
				c1.2,1.5,2.5,2.9,3.9,4.2c0.4,0.4,0.9,0.8,1.3,1.2c0.6-0.6,1.3-1.2,1.9-1.8c1.2-1.2,2.3-2.4,3.3-3.6c8-9.5,12.3-21.5,12.3-34
				c0-12.9-4.6-24.8-12.3-34c8.1-7.3,18.8-11.8,30.6-11.8c3.1,0,6.2,0.3,9.3,1c-2.6,14.6-12.1,26.8-25,33.1c0.5,2.5,0.9,5.2,1.1,7.8
				c15.9-6.9,27.8-21.3,31.2-38.7c0.5-2.5,0.8-5,0.9-7.6C105.8,20.1,105.3,20,104.8,19.8z M63.2,70.6c0,10.5-3.5,20.5-10,28.5
				c-6.5-8.1-10-18-10-28.5c0-10.8,3.8-20.7,10-28.5C59.4,50,63.2,59.9,63.2,70.6z"/>
		</g>
	</g>
</g>
</svg>
